# xmcd CD database file
#
# Track frame offsets:
#	150
#	31325
#	59757
#	91110
#	118390
#	159055
#	191222
#
# Disc length: 3417 seconds
#
# Revision: 0
# Processed by: cddbd v1.4PL0 Copyright (c) Steve Scherf et al.
# Submitted via: CDex 1.50
#
DISCID=5a0d5707
DTITLE=Mike Booth - Atlantean Chants
DYEAR=2002
DGENRE=New Age
TTITLE0=Good To Thai
TTITLE1=Why A Dit
TTITLE2=MA
TTITLE3=Song For Jophiel
TTITLE4=Oceans Of Time
TTITLE5=For Da
TTITLE6=Ani Para Ananda
EXTD=YEAR: 2002
EXTT0=
EXTT1=
EXTT2=
EXTT3=
EXTT4=
EXTT5=
EXTT6=
PLAYORDER=
